<svg width="35" height="34" viewBox="0 0 35 34" fill="none" xmlns="http://www.w3.org/2000/svg">
<path d="M25.226 17.7436L22.9392 17.7309L24.0856 15.6691L25.2379 13.6011L26.3723 15.6755L27.5127 17.7499L25.226 17.7436Z" fill="#00815F"/>
<path d="M23.1781 19.1881C23.1781 24.7941 18.8971 29.3566 13.637 29.3566C8.37683 29.3566 4.09587 24.7941 4.09587 19.1881C4.09587 13.582 8.37683 9.01952 13.637 9.01952V4.6543C6.11992 4.6543 0 11.1703 0 19.1881C0 27.2058 6.11992 33.7219 13.637 33.7219C21.154 33.7219 27.274 27.1995 27.274 19.1881H23.1781Z" fill="#00815F"/>
<path d="M26.653 12.0166C27.871 11.1321 29.7756 9.64947 30.9936 8.77133V32.411H35V0.689941L25.22 7.79139L15.446 0.689941V12.7993H19.4524V8.77133C20.6763 9.6622 22.3481 11.1258 23.5661 12.0166H26.647H26.653Z" fill="#FFB100"/>
</svg>
